HIERARCHY
ROOT hip
{
	OFFSET 0.000000 0.000000 0.000000
	CHANNELS 6 Xposition Yposition Zposition Zrotation Yrotation Xrotation 
	JOINT lhipjoint
	{
		OFFSET 0.000000 0.000000 0.000000
		CHANNELS 3 Zrotation Yrotation Xrotation
		JOINT lfemur
		{
			OFFSET 1.363060 -1.794630 0.839290
			CHANNELS 3 Zrotation Yrotation Xrotation
			JOINT ltibia
			{
				OFFSET 2.448110 -6.726130 0.000000
				CHANNELS 3 Zrotation Yrotation Xrotation
				JOINT lfoot
				{
					OFFSET 2.562200 -7.039590 0.000000
					CHANNELS 3 Zrotation Yrotation Xrotation
					JOINT ltoes
					{
						OFFSET 0.157640 -0.433110 2.322550
						CHANNELS 3 Zrotation Yrotation Xrotation
						End Site
						{
							OFFSET 0.000000 0.000000 0.000000
						}
					}
				}
			}
		}
	}
	JOINT rhipjoint
	{
		OFFSET 0.000000 0.000000 0.000000
		CHANNELS 3 Zrotation Yrotation Xrotation
		JOINT rfemur
		{
			OFFSET -1.305520 -1.794630 0.839290
			CHANNELS 3 Zrotation Yrotation Xrotation
			JOINT rtibia
			{
				OFFSET -2.542530 -6.985550 0.000000
				CHANNELS 3 Zrotation Yrotation Xrotation
				JOINT rfoot
				{
					OFFSET -2.568260 -7.056230 0.000000
					CHANNELS 3 Zrotation Yrotation Xrotation
					JOINT rtoes
					{
						OFFSET -0.164730 -0.452590 2.363150
						CHANNELS 3 Zrotation Yrotation Xrotation
						End Site
						{
							OFFSET 0.000000 0.000000 0.000000
						}
					}
				}
			}
		}
	}
	JOINT lowerback
	{
		OFFSET 0.000000 0.000000 0.000000
		CHANNELS 3 Zrotation Yrotation Xrotation
		JOINT upperback
		{
			OFFSET 0.028270 2.035590 -0.193380
			CHANNELS 3 Zrotation Yrotation Xrotation
			JOINT thorax
			{
				OFFSET 0.056720 2.048850 -0.042750
				CHANNELS 3 Zrotation Yrotation Xrotation
				JOINT lowerneck
				{
					OFFSET 0.000000 0.000000 0.000000
					CHANNELS 3 Zrotation Yrotation Xrotation
					JOINT upperneck
					{
						OFFSET -0.054170 1.746240 0.172020
						CHANNELS 3 Zrotation Yrotation Xrotation
						JOINT head
						{
							OFFSET 0.104070 1.761360 -0.123970
							CHANNELS 3 Zrotation Yrotation Xrotation
							End Site
							{
								OFFSET 0.000000 0.000000 0.000000
							}
						}
					}
				}
				JOINT lclavicle
				{
					OFFSET 0.000000 0.000000 0.000000
					CHANNELS 3 Zrotation Yrotation Xrotation
					JOINT lhumerus
					{
						OFFSET 3.362410 1.200890 -0.311210
						CHANNELS 3 Zrotation Yrotation Xrotation
						JOINT lradius
						{
							OFFSET 4.983000 -0.000000 -0.000000
							CHANNELS 3 Zrotation Yrotation Xrotation
							JOINT lwrist
							{
								OFFSET 3.483560 -0.000000 -0.000000
								CHANNELS 3 Zrotation Yrotation Xrotation
								JOINT lhand
								{
									OFFSET 0.000000 0.000000 0.000000
									CHANNELS 3 Zrotation Yrotation Xrotation
									JOINT lfingers
									{
										OFFSET 0.715260 -0.000000 -0.000000
										CHANNELS 3 Zrotation Yrotation Xrotation
										End Site
										{
											OFFSET 0.000000 0.000000 0.000000
										}
									}
								}
								JOINT lthumb
								{
									OFFSET 0.000000 0.000000 0.000000
									CHANNELS 3 Zrotation Yrotation Xrotation
									End Site
									{
										OFFSET 0.000000 0.000000 0.000000
									}
								}
							}
						}
					}
				}
				JOINT rclavicle
				{
					OFFSET 0.000000 0.000000 0.000000
					CHANNELS 3 Zrotation Yrotation Xrotation
					JOINT rhumerus
					{
						OFFSET -3.136600 1.374050 -0.404650
						CHANNELS 3 Zrotation Yrotation Xrotation
						JOINT rradius
						{
							OFFSET -5.241900 -0.000000 -0.000000
							CHANNELS 3 Zrotation Yrotation Xrotation
							JOINT rwrist
							{
								OFFSET -3.444170 -0.000000 -0.000000
								CHANNELS 3 Zrotation Yrotation Xrotation
								JOINT rhand
								{
									OFFSET 0.000000 0.000000 0.000000
									CHANNELS 3 Zrotation Yrotation Xrotation
									JOINT rfingers
									{
										OFFSET -0.622530 -0.000000 -0.000000
										CHANNELS 3 Zrotation Yrotation Xrotation
										End Site
										{
											OFFSET 0.000000 0.000000 0.000000
										}
									}
								}
								JOINT rthumb
								{
									OFFSET 0.000000 0.000000 0.000000
									CHANNELS 3 Zrotation Yrotation Xrotation
									End Site
									{
										OFFSET 0.000000 0.000000 0.000000
									}
								}
							}
						}
					}
				}
			}
		}
	}
}
MOTION
Frames: 7
Frame Time: 0.008333
1.443421 16.399629 -28.184678 -177.388136 24.634042 171.215441 -2.280218 2.445453 1.607468 3.330370 -15.011664 -24.506373 4.868173 12.817136 41.385800 1.885325 -13.167067 13.337319 4.191700 -12.411200 -37.202400 -0.894214 -4.903196 2.953367 8.984509 -8.932196 27.863978 -5.454581 -10.556479 35.538167 2.915108 -24.015406 22.863836 -1.135200 6.766800 -19.026200 0.442726 -4.727376 1.588175 3.042217 -6.527665 -5.673053 9.409352 -2.120106 -0.962254 0.510490 12.847456 -8.034024 -19.139153 19.435032 -1.294835 -4.936400 9.823000 2.807100 -1.125921 2.004244 0.495171 -37.142311 26.839174 9.910490 24.223514 -43.968104 -11.949985 -0.472517 -0.326355 150.713232 22.154958 11.775496 4.611500 -7.125000 0.000000 0.000000 -5.057300 42.548800 0.306700 5.853831 0.525047 1.253164 20.440920 -1.024181 -97.365521 -165.510858 21.084855 -117.233941 -0.551279 0.395210 165.187145 38.348503 15.527781 12.332400 7.125000 0.000000 0.000000 37.998100 -9.639300 42.338300 
1.463407 16.425252 -28.367732 -177.264231 21.568401 171.461806 -2.218756 2.478914 1.498775 2.494926 -16.160677 -25.123860 4.956705 12.740435 41.704530 1.924734 -15.093878 13.886176 4.051400 -12.228500 -36.545100 -0.637665 -4.986654 2.913442 9.075601 -12.470913 27.569415 -5.515944 -10.406352 35.616073 2.169126 -21.905519 24.956770 -1.080700 6.607600 -18.557900 -0.561265 -3.001716 1.319846 2.424063 -4.407183 -5.612200 7.817931 -1.121045 -1.242522 0.184880 13.006227 -8.110719 -18.816600 19.713721 -0.811670 -4.653600 9.931000 2.991600 -1.211073 1.757137 0.371986 -38.951994 25.348029 6.903699 25.460068 -44.759112 -12.502994 -0.459906 -0.334970 150.554485 22.683461 13.709040 5.496100 -7.125000 0.000000 0.000000 -4.902400 44.660000 0.041200 5.677340 0.698390 1.049325 20.225866 2.021605 -97.324697 -164.583097 21.905921 -116.890269 -0.589692 0.361947 164.736815 46.022188 13.327813 14.027200 7.125000 0.000000 0.000000 40.382100 -6.872500 51.336900 
1.473349 16.447596 -28.546584 -177.137457 18.653552 171.611762 -2.148352 2.523416 1.394049 1.633095 -17.317749 -25.597833 5.084833 12.700803 42.160749 1.919208 -16.901528 14.301461 3.888800 -12.010900 -35.770600 -0.374702 -5.067913 2.872015 9.232899 -15.706454 27.287044 -5.563586 -10.254183 35.609582 1.679486 -20.498487 26.422992 -1.030200 6.456100 -18.113700 -1.252265 -1.286909 1.352777 1.774099 -2.250508 -5.522770 5.921432 -0.106698 -1.478421 -0.111883 13.165871 -8.245698 -18.402443 19.971819 -0.247150 -4.319600 10.016800 3.193200 -1.295268 1.511107 0.254976 -41.108758 23.627683 3.295065 26.537326 -45.360218 -12.967796 -0.442311 -0.315873 150.148596 22.073048 14.448717 5.621700 -7.125000 0.000000 0.000000 -5.586100 45.385000 -0.053200 5.454622 0.874950 0.870415 20.070003 4.746873 -95.047241 -163.092230 23.385269 -116.384509 -0.635686 0.297288 166.808420 52.621252 12.176136 16.183300 7.125000 0.000000 0.000000 41.673000 -0.715000 62.236600 
1.475501 16.464508 -28.716108 -176.889431 15.929399 171.711886 -2.063104 2.570202 1.291654 0.910373 -18.453892 -25.959248 5.245722 12.703869 42.738601 1.878846 -18.602110 14.609692 3.717200 -11.774300 -34.938200 -0.111030 -5.138499 2.826110 9.613673 -18.629599 26.979336 -5.621768 -10.125306 35.612626 1.422453 -19.760443 27.295824 -1.003500 6.374500 -17.874900 -1.442795 0.332068 1.639129 1.110456 -0.167003 -5.389051 3.624901 0.879549 -1.583497 0.009676 13.287435 -8.111659 -18.178852 20.154823 0.022583 -4.157000 10.105200 3.241300 -1.386836 1.360583 0.239768 -43.323874 22.603278 0.416969 28.672582 -46.759280 -14.149221 -0.414639 -0.302895 148.083107 20.852345 14.541920 5.321200 -7.125000 0.000000 0.000000 -6.708000 45.346400 -0.057600 5.198597 1.045403 0.711717 19.833393 7.289187 -90.939938 -160.754977 25.873774 -115.565754 -0.682957 0.206451 169.066795 58.930051 10.655846 17.929300 7.125000 0.000000 0.000000 43.398500 9.362300 75.989300 
1.469557 16.468300 -28.869747 -176.516207 13.376983 171.761869 -1.966723 2.619104 1.182569 0.345104 -19.664134 -26.239816 5.433460 12.735418 43.404773 1.812196 -20.115232 14.828137 3.549300 -11.535100 -34.106700 0.152759 -5.193224 2.776730 10.281612 -21.258077 26.626057 -5.715898 -10.047468 35.719537 1.328727 -19.615329 27.817873 -1.044400 6.499100 -18.239600 -1.201421 1.858288 2.122085 0.440327 1.854241 -5.198233 1.037964 1.857588 -1.493470 0.344375 13.297024 -7.500647 -18.076235 20.193607 -0.128187 -4.148100 10.195700 2.982600 -1.500844 1.328635 0.290075 -45.591126 21.881256 -3.008011 31.037569 -48.299951 -15.561628 -0.415478 -0.266964 146.864315 21.051918 14.589250 5.415700 -7.125000 0.000000 0.000000 -6.526700 45.469100 -0.075900 4.926832 1.222544 0.595299 19.194141 9.435291 -86.191371 -157.717205 29.170787 -114.378947 -0.768703 0.059713 173.224224 66.082575 11.565693 24.918900 7.125000 0.000000 0.000000 50.275900 27.395500 98.164800 
1.458282 16.465020 -29.006166 -176.161171 11.053090 171.814437 -1.875017 2.670620 1.077985 -0.144157 -20.956956 -26.497985 5.642804 12.776186 44.122892 1.735365 -21.307950 14.947580 3.374900 -11.278500 -33.224900 0.408190 -5.242527 2.747987 11.167163 -23.427091 26.015572 -5.864700 -10.050978 35.980460 1.410056 -20.261316 28.061753 -1.143100 6.789500 -19.093200 -0.884654 3.387740 2.807563 -0.215167 3.929236 -5.023815 -1.506353 2.904110 -1.479947 1.084952 13.169452 -6.399572 -18.252742 20.092025 -0.353513 -4.370100 10.243600 2.637400 -1.601480 1.364208 0.379288 -47.725670 21.674695 -5.837355 34.057751 -50.151990 -17.521184 -0.409533 -0.231960 146.490202 19.572407 14.274386 4.906700 -7.125000 0.000000 0.000000 -7.800300 44.986500 0.002600 4.617407 1.370331 0.489899 17.895772 11.778548 -82.792083 -153.037779 34.341879 -112.016557 -0.810590 -0.019163 176.680801 71.619296 10.071764 27.924600 7.125000 0.000000 0.000000 119.435400 -38.600500 -63.845000 
1.443011 16.456820 -29.128236 -175.891371 8.907191 171.775663 -1.800355 2.728274 0.978274 -0.700809 -22.348724 -26.588397 5.855869 12.805061 44.822050 1.665471 -22.132794 14.956342 3.206900 -11.022600 -32.356300 0.648327 -5.285625 2.738532 12.230556 -25.086591 25.211521 -6.072337 -10.143085 36.435044 1.676135 -21.669540 27.962889 -1.207800 6.972200 -19.633200 -0.606991 4.852640 3.761003 -0.836100 5.969595 -4.861390 -3.844822 3.970637 -1.496374 1.850603 14.438927 -5.061989 -18.387976 19.648574 -0.226850 -4.628100 9.355500 2.338100 -1.700422 1.447761 0.458580 -49.525437 21.523795 -7.958107 36.578696 -51.578632 -19.145056 -0.396298 -0.212083 146.622819 16.380784 14.960079 4.236300 -7.125000 0.000000 0.000000 -10.863100 45.306600 -0.083200 4.271559 1.445095 0.415924 15.511557 13.801736 -82.531014 -145.711894 41.449133 -107.228233 -0.794214 -0.058276 177.224191 75.936819 6.573957 24.315500 7.125000 0.000000 0.000000 126.091100 -33.722400 -77.517400 
